<?xml version="1.0" encoding="utf-8"?>
<svg xmlns="http://www.w3.org/2000/svg" fill="none" height="33" viewBox="0 0 164 33" width="164">
<path d="M150.006 7.73667V7.39984H149.671H144.649C144.279 7.39984 143.979 7.09822 143.979 6.72617V1.67367C143.979 1.30161 144.279 1 144.649 1H162.73C163.1 1 163.4 1.30161 163.4 1.67367V6.72617C163.4 7.09822 163.1 7.39984 162.73 7.39984H157.708H157.373V7.73667V19.8627C157.373 20.2347 157.073 20.5364 156.703 20.5364H150.676C150.306 20.5364 150.006 20.2347 150.006 19.8627V7.73667ZM125.799 13.0213L126.092 12.7269L125.745 12.5004C124.037 11.3878 122.884 9.42131 122.884 7.22814C122.884 3.78844 125.657 1 129.078 1H129.079H129.08H129.082H129.083H129.085H129.086H129.087H129.088H129.089H129.091H129.092H129.093H129.095H129.096H129.097H129.098H129.099H129.101H129.102H129.103H129.105H129.106H129.107H129.108H129.109H129.111H129.112H129.113H129.115H129.116H129.117H129.118H141.635C142.003 1 142.305 1.30385 142.305 1.67316V6.19794C142.305 6.41356 142.194 6.62408 142.001 6.75651C142.001 6.75683 142 6.75715 141.999 6.75748L139.441 8.47292L139.015 8.75802L139.445 9.03638C141.161 10.1485 142.305 12.1044 142.305 14.3082C142.305 17.7381 139.551 20.5167 136.15 20.5364H123.554C123.186 20.5364 122.884 20.2325 122.884 19.8632V16.2373C122.884 16.0507 122.951 15.8849 123.077 15.7584L125.799 13.0213ZM109.155 6.72617V7.06301H109.49H114.513C114.882 7.06301 115.182 7.36462 115.182 7.73667V12.7892V13.126H115.517H120.54C120.91 13.126 121.21 13.4276 121.21 13.7997V19.8627C121.21 20.2347 120.91 20.5364 120.54 20.5364H102.458C102.089 20.5364 101.789 20.2347 101.789 19.8627V1.67367C101.789 1.30161 102.089 1 102.458 1H108.486C108.855 1 109.155 1.30161 109.155 1.67367V6.72617ZM86.7207 7.73667V7.39984H86.3858H81.3632C80.9935 7.39984 80.6935 7.09822 80.6935 6.72617V1.67367C80.6935 1.30161 80.9935 1 81.3632 1H99.4447C99.8144 1 100.114 1.30161 100.114 1.67367V6.72617C100.114 7.09822 99.8144 7.39984 99.4447 7.39984H94.4221H94.0872V7.73667V19.8627C94.0872 20.2347 93.7872 20.5364 93.4175 20.5364H87.3904C87.0207 20.5364 86.7207 20.2347 86.7207 19.8627V7.73667ZM78.9362 1.99832L78.9335 2.00291L78.9315 2.00757L73.0289 13.6466L72.992 13.7187V13.7997V19.8627C72.992 20.2347 72.692 20.5364 72.3223 20.5364H66.2952C65.9253 20.5364 65.6255 20.2347 65.6255 19.8627V13.7997V13.7188L65.5889 13.6466L59.6875 2.0076L59.6851 2.00292L59.6826 1.99832C59.4371 1.54935 59.76 1 60.2694 1H78.3495C78.8592 1 79.182 1.54936 78.9362 1.99832ZM53.3618 1.35421L53.3625 1.35535L63.8624 19.545C63.8626 19.5453 63.8627 19.5456 63.8628 19.5459C64.1054 19.9711 63.8001 20.5364 63.2326 20.5364H42.2314C41.6637 20.5364 41.3584 19.9708 41.6013 19.5455C41.6012 19.5456 41.6014 19.5453 41.6013 19.5455L52.1015 1.35535L52.1022 1.35421C52.3723 0.88193 53.0917 0.881929 53.3618 1.35421ZM29.7971 13.7997V14.1365H30.1319H39.1727C39.5426 14.1365 39.8424 14.4381 39.8424 14.8102V19.8627C39.8424 20.2347 39.5426 20.5364 39.1727 20.5364H23.1002C22.7303 20.5364 22.4305 20.2347 22.4305 19.8627V1.67367C22.4305 1.30161 22.7303 1 23.1002 1H29.1274C29.4973 1 29.7971 1.30161 29.7971 1.67367V13.7997ZM9.03675 16.4943H8.7019V16.8312V19.8627C8.7019 20.2347 8.40209 20.5364 8.03222 20.5364H2.00502C1.63516 20.5364 1.33533 20.2347 1.33533 19.8627V1.67367C1.33533 1.30161 1.63516 1 2.00502 1H13.0549C17.3083 1 20.7563 4.46853 20.7563 8.74717C20.7563 13.0258 17.3083 16.4943 13.0549 16.4943H9.03675Z" fill="#FF5C3E"/>
<path d="M41.6013 19.5455C41.3584 19.9708 41.6637 20.5364 42.2314 20.5364H63.2326C63.8001 20.5364 64.1054 19.9711 63.8628 19.5459C63.8627 19.5456 63.8626 19.5453 63.8624 19.545L53.3625 1.35535L53.3618 1.35421C53.0917 0.881929 52.3723 0.88193 52.1022 1.35421L52.1015 1.35535L41.6013 19.5455ZM41.6013 19.5455C41.6014 19.5453 41.6012 19.5456 41.6013 19.5455ZM150.006 7.73667V7.39984H149.671H144.649C144.279 7.39984 143.979 7.09822 143.979 6.72617V1.67367C143.979 1.30161 144.279 1 144.649 1H162.73C163.1 1 163.4 1.30161 163.4 1.67367V6.72617C163.4 7.09822 163.1 7.39984 162.73 7.39984H157.708H157.373V7.73667V19.8627C157.373 20.2347 157.073 20.5364 156.703 20.5364H150.676C150.306 20.5364 150.006 20.2347 150.006 19.8627V7.73667ZM125.799 13.0213L126.092 12.7269L125.745 12.5004C124.037 11.3878 122.884 9.42131 122.884 7.22814C122.884 3.78844 125.657 1 129.078 1H129.079H129.08H129.082H129.083H129.085H129.086H129.087H129.088H129.089H129.091H129.092H129.093H129.095H129.096H129.097H129.098H129.099H129.101H129.102H129.103H129.105H129.106H129.107H129.108H129.109H129.111H129.112H129.113H129.115H129.116H129.117H129.118H141.635C142.003 1 142.305 1.30385 142.305 1.67316V6.19794C142.305 6.41356 142.194 6.62408 142.001 6.75651C142.001 6.75683 142 6.75715 141.999 6.75748L139.441 8.47292L139.015 8.75802L139.445 9.03638C141.161 10.1485 142.305 12.1044 142.305 14.3082C142.305 17.7381 139.551 20.5167 136.15 20.5364H123.554C123.186 20.5364 122.884 20.2325 122.884 19.8632V16.2373C122.884 16.0507 122.951 15.8849 123.077 15.7584L125.799 13.0213ZM109.155 6.72617V7.06301H109.49H114.513C114.882 7.06301 115.182 7.36462 115.182 7.73667V12.7892V13.126H115.517H120.54C120.91 13.126 121.21 13.4276 121.21 13.7997V19.8627C121.21 20.2347 120.91 20.5364 120.54 20.5364H102.458C102.089 20.5364 101.789 20.2347 101.789 19.8627V1.67367C101.789 1.30161 102.089 1 102.458 1H108.486C108.855 1 109.155 1.30161 109.155 1.67367V6.72617ZM86.7207 7.73667V7.39984H86.3858H81.3631C80.9935 7.39984 80.6935 7.09822 80.6935 6.72617V1.67367C80.6935 1.30161 80.9935 1 81.3631 1H99.4447C99.8144 1 100.114 1.30161 100.114 1.67367V6.72617C100.114 7.09822 99.8144 7.39984 99.4447 7.39984H94.4221H94.0872V7.73667V19.8627C94.0872 20.2347 93.7872 20.5364 93.4175 20.5364H87.3903C87.0207 20.5364 86.7207 20.2347 86.7207 19.8627V7.73667ZM78.9362 1.99832L78.9335 2.00291L78.9315 2.00757L73.0289 13.6466L72.992 13.7187V13.7997V19.8627C72.992 20.2347 72.692 20.5364 72.3223 20.5364H66.2951C65.9253 20.5364 65.6255 20.2347 65.6255 19.8627V13.7997V13.7188L65.5889 13.6466L59.6875 2.0076L59.6851 2.00292L59.6826 1.99832C59.4371 1.54935 59.76 1 60.2694 1H78.3495C78.8592 1 79.182 1.54936 78.9362 1.99832ZM29.7971 13.7997V14.1365H30.1319H39.1727C39.5426 14.1365 39.8424 14.4381 39.8424 14.8102V19.8627C39.8424 20.2347 39.5426 20.5364 39.1727 20.5364H23.1002C22.7303 20.5364 22.4305 20.2347 22.4305 19.8627V1.67367C22.4305 1.30161 22.7303 1 23.1002 1H29.1274C29.4973 1 29.7971 1.30161 29.7971 1.67367V13.7997ZM9.03675 16.4943H8.7019V16.8312V19.8627C8.7019 20.2347 8.40209 20.5364 8.03222 20.5364H2.00502C1.63516 20.5364 1.33533 20.2347 1.33533 19.8627V1.67367C1.33533 1.30161 1.63516 1 2.00502 1H13.0549C17.3083 1 20.7563 4.46853 20.7563 8.74717C20.7563 13.0258 17.3083 16.4943 13.0549 16.4943H9.03675Z" stroke="#FF5C3E" stroke-width="1.19999"/>
<path d="M12.8033 22.6414C12.5259 22.6414 12.301 22.8676 12.301 23.1467V32.2412C12.301 32.5202 12.5259 32.7464 12.8033 32.7464H20.8396C21.1169 32.7464 21.3418 32.5202 21.3418 32.2412V29.7149C21.3418 29.4359 21.1169 29.2097 20.8396 29.2097H16.3192V23.1467C16.3192 22.8676 16.0943 22.6414 15.8169 22.6414H12.8033Z" fill="#FF5C3E"/>
<path d="M33.6475 23.1467C33.6475 22.8676 33.8723 22.6414 34.1497 22.6414H43.1905C43.4679 22.6414 43.6928 22.8676 43.6928 23.1467V27.9465C43.6928 30.7369 41.444 32.999 38.6701 32.999C35.8962 32.999 33.6475 30.7369 33.6475 27.9465V23.1467Z" fill="#FF5C3E"/>
<path d="M6.02267 22.6414C3.24872 22.6414 1 24.9035 1 27.6939C1 30.4843 3.24872 32.7464 6.02267 32.7464H10.7942C11.0716 32.7464 11.2965 32.5202 11.2965 32.2412V28.4518C11.2965 28.1728 11.0716 27.9465 10.7942 27.9465H6.2738C6.1351 27.9465 6.02267 27.8334 6.02267 27.6939C6.02267 27.5544 6.1351 27.4413 6.2738 27.4413H10.7942C11.0716 27.4413 11.2965 27.2151 11.2965 26.936V23.1467C11.2965 22.8676 11.0716 22.6414 10.7942 22.6414H6.02267Z" fill="#FF5C3E"/>
<path d="M32.6428 27.6934C32.6428 30.6233 30.2816 32.9985 27.369 32.9985C24.4564 32.9985 22.0952 30.6233 22.0952 27.6934C22.0952 24.7635 24.4564 22.3883 27.369 22.3883C30.2816 22.3883 32.6428 24.7635 32.6428 27.6934Z" fill="#FF5C3E"/>
<path d="M44.6975 23.1467C44.6975 22.8676 44.9224 22.6414 45.1998 22.6414H49.9713C52.7452 22.6414 54.994 24.9035 54.994 27.6939C54.994 30.4843 52.7452 32.7464 49.9713 32.7464H45.1998C44.9224 32.7464 44.6975 32.5202 44.6975 32.2412V23.1467Z" fill="#FF5C3E"/>
<mask height="11" id="mask0_1291_20007" maskUnits="userSpaceOnUse" style="mask-type:luminance" width="54" x="1" y="22">
<path d="M12.8033 22.6421C12.5259 22.6421 12.301 22.8683 12.301 23.1473V32.2418C12.301 32.5209 12.5259 32.7471 12.8033 32.7471H20.8396C21.1169 32.7471 21.3418 32.5209 21.3418 32.2418V29.7156C21.3418 29.4366 21.1169 29.2103 20.8396 29.2103H16.3192V23.1473C16.3192 22.8683 16.0943 22.6421 15.8169 22.6421H12.8033Z" fill="white"/>
<path d="M33.6475 23.1473C33.6475 22.8683 33.8723 22.6421 34.1497 22.6421H43.1905C43.4679 22.6421 43.6928 22.8683 43.6928 23.1473V27.9472C43.6928 30.7376 41.444 32.9997 38.6701 32.9997C35.8962 32.9997 33.6475 30.7376 33.6475 27.9472V23.1473Z" fill="white"/>
<path d="M6.02267 22.6422C3.24872 22.6422 1 24.9043 1 27.6947C1 30.4851 3.24872 32.7472 6.02267 32.7472H10.7942C11.0716 32.7472 11.2965 32.521 11.2965 32.242V28.4526C11.2965 28.1736 11.0716 27.9474 10.7942 27.9474H6.2738C6.1351 27.9474 6.02267 27.8343 6.02267 27.6947C6.02267 27.5552 6.1351 27.4421 6.2738 27.4421H10.7942C11.0716 27.4421 11.2965 27.2159 11.2965 26.9369V23.1475C11.2965 22.8685 11.0716 22.6422 10.7942 22.6422H6.02267Z" fill="white"/>
<path d="M32.6428 27.6949C32.6428 30.6248 30.2816 33 27.369 33C24.4564 33 22.0952 30.6248 22.0952 27.6949C22.0952 24.765 24.4564 22.3897 27.369 22.3897C30.2816 22.3897 32.6428 24.765 32.6428 27.6949Z" fill="white"/>
<path d="M44.6975 23.1473C44.6975 22.8683 44.9224 22.6421 45.1998 22.6421H49.9713C52.7452 22.6421 54.994 24.9042 54.994 27.6946C54.994 30.485 52.7452 32.7471 49.9713 32.7471H45.1998C44.9224 32.7471 44.6975 32.5209 44.6975 32.2418V23.1473Z" fill="white"/>
</mask>
<g mask="url(#mask0_1291_20007)">
<path d="M16.3196 29.2101H15.6499V29.8837H16.3196V29.2101ZM12.9712 23.1471C12.9712 23.2401 12.8962 23.3155 12.8038 23.3155V21.9681C12.1565 21.9681 11.6318 22.496 11.6318 23.1471H12.9712ZM12.9712 32.2416V23.1471H11.6318V32.2416H12.9712ZM12.8038 32.0732C12.8962 32.0732 12.9712 32.1485 12.9712 32.2416H11.6318C11.6318 32.8927 12.1565 33.4205 12.8038 33.4205V32.0732ZM20.6726 32.2416C20.6726 32.1485 20.7475 32.0732 20.84 32.0732V33.4205C21.4873 33.4205 22.012 32.8927 22.012 32.2416H20.6726ZM20.6726 29.7153V32.2416H22.012V29.7153H20.6726ZM20.84 29.8837C20.7475 29.8837 20.6726 29.8084 20.6726 29.7153H22.012C22.012 29.0642 21.4873 28.5364 20.84 28.5364V29.8837ZM16.3196 29.8837H20.84V28.5364H16.3196V29.8837ZM15.6499 23.1471V29.2101H16.9893V23.1471H15.6499ZM15.8174 23.3155C15.7249 23.3155 15.6499 23.2401 15.6499 23.1471H16.9893C16.9893 22.496 16.4646 21.9681 15.8174 21.9681V23.3155ZM12.8038 23.3155H15.8174V21.9681H12.8038V23.3155ZM20.84 32.0732H12.8038V33.4205H20.84V32.0732ZM34.1501 23.3155H43.1909V21.9681H34.1501V23.3155ZM43.0235 23.1471V27.9469H44.3628V23.1471H43.0235ZM34.3175 27.9469V23.1471H32.9781V27.9469H34.3175ZM38.6705 32.3258C36.2664 32.3258 34.3175 30.3653 34.3175 27.9469H32.9781C32.9781 31.1094 35.5267 33.6731 38.6705 33.6731V32.3258ZM43.0235 27.9469C43.0235 30.3653 41.0746 32.3258 38.6705 32.3258V33.6731C41.8143 33.6731 44.3628 31.1094 44.3628 27.9469H43.0235ZM43.1909 23.3155C43.0984 23.3155 43.0235 23.2401 43.0235 23.1471H44.3628C44.3628 22.496 43.8381 21.9681 43.1909 21.9681V23.3155ZM34.1501 21.9681C33.5028 21.9681 32.9781 22.496 32.9781 23.1471H34.3175C34.3175 23.2401 34.2426 23.3155 34.1501 23.3155V21.9681ZM1.67019 27.6943C1.67019 25.2759 3.61908 23.3155 6.02317 23.3155V21.9681C2.87936 21.9681 0.330811 24.5319 0.330811 27.6943H1.67019ZM6.02317 32.0732C3.61908 32.0732 1.67019 30.1127 1.67019 27.6943H0.330811C0.330811 30.8568 2.87936 33.4205 6.02317 33.4205V32.0732ZM10.7947 32.0732H6.02317V33.4205H10.7947V32.0732ZM10.6273 28.4522V32.2416H11.9667V28.4522H10.6273ZM10.7947 27.2733H6.2743V28.6206H10.7947V27.2733ZM6.2743 27.2733C6.50546 27.2733 6.69285 27.4618 6.69285 27.6943H5.35348C5.35348 28.2059 5.76574 28.6206 6.2743 28.6206V27.2733ZM6.69285 27.6943C6.69285 27.9269 6.50546 28.1154 6.2743 28.1154V26.768C5.76574 26.768 5.35348 27.1827 5.35348 27.6943H6.69285ZM6.2743 28.1154H10.7947V26.768H6.2743V28.1154ZM10.6273 23.1471V26.9364H11.9667V23.1471H10.6273ZM6.02317 23.3155H10.7947V21.9681H6.02317V23.3155ZM11.9667 23.1471C11.9667 22.496 11.442 21.9681 10.7947 21.9681V23.3155C10.7022 23.3155 10.6273 23.2401 10.6273 23.1471H11.9667ZM11.9667 28.4522C11.9667 27.8011 11.442 27.2733 10.7947 27.2733V28.6206C10.7022 28.6206 10.6273 28.5452 10.6273 28.4522H11.9667ZM10.7947 28.1154C11.442 28.1154 11.9667 27.5875 11.9667 26.9364H10.6273C10.6273 26.8434 10.7022 26.768 10.7947 26.768V28.1154ZM10.7947 33.4205C11.442 33.4205 11.9667 32.8927 11.9667 32.2416H10.6273C10.6273 32.1485 10.7022 32.0732 10.7947 32.0732V33.4205ZM31.9736 27.6943C31.9736 30.2522 29.9123 32.3258 27.3695 32.3258V33.6731C30.652 33.6731 33.313 30.9963 33.313 27.6943H31.9736ZM27.3695 32.3258C24.8267 32.3258 22.7654 30.2522 22.7654 27.6943H21.426C21.426 30.9963 24.087 33.6731 27.3695 33.6731V32.3258ZM22.7654 27.6943C22.7654 25.1364 24.8267 23.0629 27.3695 23.0629V21.7155C24.087 21.7155 21.426 24.3923 21.426 27.6943H22.7654ZM27.3695 23.0629C29.9123 23.0629 31.9736 25.1364 31.9736 27.6943H33.313C33.313 24.3923 30.652 21.7155 27.3695 21.7155V23.0629ZM45.2 23.3155H49.9715V21.9681H45.2V23.3155ZM49.9715 32.0732H45.2V33.4205H49.9715V32.0732ZM45.3674 32.2416V23.1471H44.028V32.2416H45.3674ZM45.2 32.0732C45.2924 32.0732 45.3674 32.1485 45.3674 32.2416H44.028C44.028 32.8927 44.5527 33.4205 45.2 33.4205V32.0732ZM54.3245 27.6943C54.3245 30.1127 52.3756 32.0732 49.9715 32.0732V33.4205C53.1153 33.4205 55.6638 30.8568 55.6638 27.6943H54.3245ZM49.9715 23.3155C52.3756 23.3155 54.3245 25.2759 54.3245 27.6943H55.6638C55.6638 24.5319 53.1153 21.9681 49.9715 21.9681V23.3155ZM45.2 21.9681C44.5527 21.9681 44.028 22.496 44.028 23.1471H45.3674C45.3674 23.2401 45.2924 23.3155 45.2 23.3155V21.9681Z" fill="#FF5C3E"/>
</g>
</svg>